<svg width="415" height="345" viewBox="0 0 415 345" fill="none" xmlns="http://www.w3.org/2000/svg">
<g clip-path="url(#clip0)">
<path opacity="0.1" d="M387.598 190.636C371.658 216.485 374.644 251.699 381.645 279.465C383.988 288.762 386.687 298.576 384.684 308.98C382.234 321.702 373.304 331.693 364.266 337.414C347.788 347.818 328.973 347.53 315.272 336.652C303.441 327.255 295.649 310.867 283.568 301.975C263.369 287.091 235.632 296.112 211.548 310.023C194.516 319.841 175.77 332.335 160.027 325.261C148.952 320.294 142.046 306.279 138.823 291.028C137.267 283.666 136.326 275.622 132.759 270.013C130.636 266.679 127.718 264.447 124.692 262.616C97.0796 245.926 59.7199 259.881 33.0916 240.981C15.1058 228.22 4.88169 201.863 1.52091 173.679C-1.83987 145.495 0.923532 115.338 4.38315 85.6465C6.84572 64.5367 10.1764 41.9534 21.23 24.7855C32.924 6.62668 51.3567 -1.49416 67.3784 0.229094C83.4001 1.95235 97.3116 12.1282 109.302 24.5658C124.288 40.1095 137.804 59.9614 157.2 64.9761C170.411 68.3924 184.838 64.4376 198.887 62.2016C222.344 58.4622 245.474 59.5349 268.44 60.9394C290.427 62.2835 312.547 63.9551 333.034 71.7097C347.53 77.2026 358.657 88.6364 372.186 96.0722C381.005 100.919 390.954 101.535 399.171 107.997C409.292 115.959 418.051 130.654 413.998 149.23C410.135 166.902 396.055 176.919 387.598 190.636Z" fill="#6C63FF"/>
<path d="M285.576 132.208C285.576 132.208 328.982 95.7484 338.635 77.3655C348.287 58.9827 360.574 43.1417 360.574 43.1417" stroke="#535461" stroke-width="2" stroke-miterlimit="10"/>
<path d="M354.867 84.237L336.091 79.9935C336.091 79.9935 340.521 99.8454 354.867 84.237Z" fill="#6C63FF"/>
<path d="M326.176 63.9715L336.98 80.1917C336.98 80.1917 315.857 81.7211 326.176 63.9715Z" fill="#6C63FF"/>
<path d="M362.255 68.9905L345.094 65.9748C345.094 65.9748 355.873 82.4104 362.255 68.9905Z" fill="#6C63FF"/>
<path d="M336.86 54.4936L345.313 65.5914C345.313 65.5914 330.349 67.0131 336.86 54.4936Z" fill="#6C63FF"/>
<path d="M353.969 52.2836C353.969 52.2836 368.581 52.9815 370.3 54.3816C372.019 55.7818 368.121 63.9888 362.564 62.6489C357.007 61.3091 353.969 52.2836 353.969 52.2836Z" fill="#6C63FF"/>
<path d="M348.128 39.1911C348.128 39.1911 354.098 50.095 353.874 52.1716C353.651 54.2481 344.776 56.5788 342.984 48.725C341.192 40.8713 348.128 39.1911 348.128 39.1911Z" fill="#6C63FF"/>
<path d="M366.692 47.519C367.368 45.3739 366.181 43.0858 364.041 42.4084C361.901 41.7311 359.619 42.9208 358.943 45.0659C358.267 47.211 359.454 49.4991 361.594 50.1764C363.734 50.8538 366.016 49.6641 366.692 47.519Z" fill="#FFD037"/>
<path d="M360.331 43.3274C361.007 41.1823 359.82 38.8942 357.68 38.2168C355.54 37.5394 353.258 38.7292 352.582 40.8743C351.906 43.0194 353.093 45.3075 355.233 45.9849C357.373 46.6622 359.655 45.4724 360.331 43.3274Z" fill="#FFD037"/>
<path d="M150.186 275.131C150.186 275.131 157.153 254.357 112.99 229.314C112.99 229.314 68.1482 216.204 72.7338 171.184C72.7338 171.184 21.0414 209.147 56.0201 257.506C90.9989 305.865 121.19 295.31 121.19 295.31L150.186 275.131Z" fill="#6C63FF"/>
<path d="M136.722 284.514C136.722 284.514 115.173 261.168 94.5186 252.142C90.3926 250.281 86.6013 247.749 83.2974 244.651C70.1293 232.588 64.3876 214.386 67.7828 196.83L72.7466 171.184" stroke="#535461" stroke-width="2" stroke-miterlimit="10"/>
<path d="M328.204 14.303H82.9751V299.73H328.204V14.303Z" fill="url(#paint0_linear)"/>
<path d="M325.351 17.6246H85.833V296.4H325.351V17.6246Z" fill="#F7F7FD"/>
<path d="M160.849 49.0482H100.299V53.8819H160.849V49.0482Z" fill="#E2E2EC"/>
<path d="M203.714 60.8654H100.299V65.6991H203.714V60.8654Z" fill="#E2E2EC"/>
<path d="M313.88 44.4298H270.908V81.6004H313.88V44.4298Z" fill="white"/>
<path d="M313.652 44.6452V81.385H271.106V44.6452H313.652ZM314.082 44.2144H270.676V81.8158H314.082V44.2144Z" fill="#E2E2EC"/>
<path d="M270.478 44.4298H227.506V81.6004H270.478V44.4298Z" fill="white"/>
<path d="M270.246 44.6452V81.385H227.699V44.6452H270.246ZM270.676 44.2144H227.269V81.8158H270.676V44.2144Z" fill="#E2E2EC"/>
<path d="M313.88 82.0313H270.908V119.202H313.88V82.0313Z" fill="white"/>
<path d="M313.652 82.2467V118.986H271.106V82.2467H313.652ZM314.082 81.8158H270.676V119.417H314.082V81.8158Z" fill="#E2E2EC"/>
<path d="M270.478 82.0313H227.506V119.202H270.478V82.0313Z" fill="white"/>
<path d="M270.246 82.2467V118.986H227.699V82.2467H270.246ZM270.676 81.8158H227.269V119.417H270.676V81.8158Z" fill="#E2E2EC"/>
<path d="M227.076 82.0313H184.104V119.202H227.076V82.0313Z" fill="white"/>
<path d="M226.861 82.2467V118.986H184.314V82.2467H226.861ZM227.291 81.8158H183.884V119.417H227.291V81.8158Z" fill="#E2E2EC"/>
<path d="M183.674 82.0313H140.701V119.202H183.674V82.0313Z" fill="white"/>
<path d="M183.459 82.2467V118.986H140.912V82.2467H183.459ZM183.889 81.8158H140.482V119.417H183.889V81.8158Z" fill="#E2E2EC"/>
<path d="M140.272 82.0313H97.2992V119.202H140.272V82.0313Z" fill="white"/>
<path d="M140.057 82.2467V118.986H97.5098V82.2467H140.057ZM140.487 81.8158H97.0801V119.417H140.487V81.8158Z" fill="#E2E2EC"/>
<path d="M313.88 119.628H270.908V156.799H313.88V119.628Z" fill="white"/>
<path d="M313.652 119.848V156.588H271.106V119.848H313.652ZM314.082 119.417H270.676V157.019H314.082V119.417Z" fill="#E2E2EC"/>
<path d="M270.478 119.628H227.506V156.799H270.478V119.628Z" fill="white"/>
<path d="M270.246 119.848V156.588H227.699V119.848H270.246ZM270.676 119.417H227.269V157.019H270.676V119.417Z" fill="#E2E2EC"/>
<path d="M227.076 119.628H184.104V156.799H227.076V119.628Z" fill="white"/>
<path d="M226.861 119.848V156.588H184.314V119.848H226.861ZM227.291 119.417H183.884V157.019H227.291V119.417Z" fill="#E2E2EC"/>
<path d="M183.674 119.628H140.701V156.799H183.674V119.628Z" fill="white"/>
<path d="M183.459 119.848V156.588H140.912V119.848H183.459ZM183.889 119.417H140.482V157.019H183.889V119.417Z" fill="#E2E2EC"/>
<path d="M140.272 119.628H97.2992V156.799H140.272V119.628Z" fill="white"/>
<path d="M140.057 119.848V156.588H97.5098V119.848H140.057ZM140.487 119.417H97.0801V157.019H140.487V119.417Z" fill="#E2E2EC"/>
<path d="M313.88 157.23H270.908V194.4H313.88V157.23Z" fill="white"/>
<path d="M313.652 157.445V194.185H271.106V157.445H313.652ZM314.082 157.014H270.676V194.616H314.082V157.014Z" fill="#E2E2EC"/>
<path d="M270.478 157.23H227.506V194.4H270.478V157.23Z" fill="white"/>
<path d="M270.246 157.445V194.185H227.699V157.445H270.246ZM270.676 157.014H227.269V194.616H270.676V157.014Z" fill="#E2E2EC"/>
<path d="M227.076 157.23H184.104V194.4H227.076V157.23Z" fill="white"/>
<path d="M226.861 157.445V194.185H184.314V157.445H226.861ZM227.291 157.014H183.884V194.616H227.291V157.014Z" fill="#E2E2EC"/>
<path d="M183.674 157.23H140.701V194.4H183.674V157.23Z" fill="white"/>
<path d="M183.459 157.445V194.185H140.912V157.445H183.459ZM183.889 157.014H140.482V194.616H183.889V157.014Z" fill="#E2E2EC"/>
<path d="M140.272 157.23H97.2992V194.4H140.272V157.23Z" fill="white"/>
<path d="M140.057 157.445V194.185H97.5098V157.445H140.057ZM140.487 157.014H97.0801V194.616H140.487V157.014Z" fill="#E2E2EC"/>
<path d="M313.88 194.827H270.908V231.998H313.88V194.827Z" fill="white"/>
<path d="M313.652 195.047V231.782H271.106V195.047H313.652ZM314.082 194.616H270.676V232.213H314.082V194.616Z" fill="#E2E2EC"/>
<path d="M270.478 194.827H227.506V231.998H270.478V194.827Z" fill="white"/>
<path d="M270.246 195.047V231.782H227.699V195.047H270.246ZM270.676 194.616H227.269V232.213H270.676V194.616Z" fill="#E2E2EC"/>
<path d="M227.076 194.827H184.104V231.998H227.076V194.827Z" fill="white"/>
<path d="M226.861 195.047V231.782H184.314V195.047H226.861ZM227.291 194.616H183.884V232.213H227.291V194.616Z" fill="#E2E2EC"/>
<path d="M183.674 194.827H140.701V231.998H183.674V194.827Z" fill="white"/>
<path d="M183.459 195.047V231.782H140.912V195.047H183.459ZM183.889 194.616H140.482V232.213H183.889V194.616Z" fill="#E2E2EC"/>
<path d="M140.272 194.827H97.2992V231.998H140.272V194.827Z" fill="white"/>
<path d="M140.057 195.047V231.782H97.5098V195.047H140.057ZM140.487 194.616H97.0801V232.213H140.487V194.616Z" fill="#E2E2EC"/>
<path d="M313.88 232.428H270.908V269.599H313.88V232.428Z" fill="white"/>
<path d="M313.652 232.644V269.384H271.106V232.644H313.652ZM314.082 232.213H270.676V269.814H314.082V232.213Z" fill="#E2E2EC"/>
<path d="M270.478 232.428H227.506V269.599H270.478V232.428Z" fill="white"/>
<path d="M270.246 232.644V269.384H227.699V232.644H270.246ZM270.676 232.213H227.269V269.814H270.676V232.213Z" fill="#E2E2EC"/>
<path d="M227.076 232.428H184.104V269.599H227.076V232.428Z" fill="white"/>
<path d="M226.861 232.644V269.384H184.314V232.644H226.861ZM227.291 232.213H183.884V269.814H227.291V232.213Z" fill="#E2E2EC"/>
<path d="M183.674 232.428H140.701V269.599H183.674V232.428Z" fill="white"/>
<path d="M183.459 232.644V269.384H140.912V232.644H183.459ZM183.889 232.213H140.482V269.814H183.889V232.213Z" fill="#E2E2EC"/>
<path d="M140.272 232.428H97.2992V269.599H140.272V232.428Z" fill="white"/>
<path d="M140.057 232.644V269.384H97.5098V232.644H140.057ZM140.487 232.213H97.0801V269.814H140.487V232.213Z" fill="#E2E2EC"/>
<path d="M187.559 303.676C188.788 302.741 189.944 301.639 190.301 300.294C190.484 299.583 190.387 298.828 190.03 298.187C189.673 297.545 189.084 297.066 188.384 296.848C186.626 296.296 184.748 297.279 183.321 298.3C181.895 299.321 180.266 300.454 178.4 300.243C180.33 298.843 181.25 296.572 180.717 294.509C180.626 294.064 180.401 293.658 180.072 293.345C179.097 292.484 177.326 292.859 176.157 293.531C172.44 295.685 171.404 299.799 171.382 303.517C171.009 302.177 171.322 300.781 171.314 299.403C171.305 298.024 170.845 296.503 169.427 295.762C168.519 295.368 167.536 295.178 166.548 295.207C164.876 295.155 163.015 295.293 161.876 296.292C160.458 297.533 160.827 299.618 162.061 300.984C163.294 302.349 165.172 303.207 166.896 304.15C168.211 304.87 169.543 305.71 170.334 306.847C170.437 306.998 170.524 307.16 170.592 307.33H181.065C183.372 306.386 185.553 305.159 187.559 303.676Z" fill="#6C63FF"/>
<path d="M102.968 90.1392C104.321 90.1392 105.418 89.0397 105.418 87.6835C105.418 86.3273 104.321 85.2279 102.968 85.2279C101.615 85.2279 100.518 86.3273 100.518 87.6835C100.518 89.0397 101.615 90.1392 102.968 90.1392Z" fill="#FC6681"/>
<path d="M109.088 90.1392C110.441 90.1392 111.537 89.0397 111.537 87.6835C111.537 86.3273 110.441 85.2279 109.088 85.2279C107.735 85.2279 106.638 86.3273 106.638 87.6835C106.638 89.0397 107.735 90.1392 109.088 90.1392Z" fill="#FFD037"/>
<path d="M189.471 126.543C190.824 126.543 191.921 125.444 191.921 124.087C191.921 122.731 190.824 121.632 189.471 121.632C188.118 121.632 187.022 122.731 187.022 124.087C187.022 125.444 188.118 126.543 189.471 126.543Z" fill="#6C63FF"/>
<path d="M195.595 126.543C196.948 126.543 198.045 125.444 198.045 124.087C198.045 122.731 196.948 121.632 195.595 121.632C194.242 121.632 193.146 122.731 193.146 124.087C193.146 125.444 194.242 126.543 195.595 126.543Z" fill="#6C63FF"/>
<path d="M320.451 196.895C321.804 196.895 322.901 195.795 322.901 194.439C322.901 193.083 321.804 191.984 320.451 191.984C319.098 191.984 318.002 193.083 318.002 194.439C318.002 195.795 319.098 196.895 320.451 196.895Z" fill="#6C63FF"/>
<path d="M321.676 194.034C323.029 194.034 324.126 192.935 324.126 191.579C324.126 190.222 323.029 189.123 321.676 189.123C320.323 189.123 319.226 190.222 319.226 191.579C319.226 192.935 320.323 194.034 321.676 194.034Z" fill="#6C63FF"/>
<path d="M322.901 191.579C324.254 191.579 325.351 190.479 325.351 189.123C325.351 187.767 324.254 186.667 322.901 186.667C321.548 186.667 320.451 187.767 320.451 189.123C320.451 190.479 321.548 191.579 322.901 191.579Z" fill="#6C63FF"/>
<path d="M277.2 90.1392C278.552 90.1392 279.649 89.0397 279.649 87.6835C279.649 86.3273 278.552 85.2279 277.2 85.2279C275.847 85.2279 274.75 86.3273 274.75 87.6835C274.75 89.0397 275.847 90.1392 277.2 90.1392Z" fill="#6C63FF"/>
<path d="M283.319 90.1392C284.672 90.1392 285.769 89.0397 285.769 87.6835C285.769 86.3273 284.672 85.2279 283.319 85.2279C281.967 85.2279 280.87 86.3273 280.87 87.6835C280.87 89.0397 281.967 90.1392 283.319 90.1392Z" fill="#6C63FF"/>
<path d="M289.444 90.1392C290.796 90.1392 291.893 89.0397 291.893 87.6835C291.893 86.3273 290.796 85.2279 289.444 85.2279C288.091 85.2279 286.994 86.3273 286.994 87.6835C286.994 89.0397 288.091 90.1392 289.444 90.1392Z" fill="#6C63FF"/>
<path d="M295.563 90.1392C296.916 90.1392 298.013 89.0397 298.013 87.6835C298.013 86.3273 296.916 85.2279 295.563 85.2279C294.211 85.2279 293.114 86.3273 293.114 87.6835C293.114 89.0397 294.211 90.1392 295.563 90.1392Z" fill="#6C63FF"/>
<path d="M277.2 166.217C278.552 166.217 279.649 165.117 279.649 163.761C279.649 162.405 278.552 161.305 277.2 161.305C275.847 161.305 274.75 162.405 274.75 163.761C274.75 165.117 275.847 166.217 277.2 166.217Z" fill="#6C63FF"/>
<path d="M283.319 166.217C284.672 166.217 285.769 165.117 285.769 163.761C285.769 162.405 284.672 161.305 283.319 161.305C281.967 161.305 280.87 162.405 280.87 163.761C280.87 165.117 281.967 166.217 283.319 166.217Z" fill="#6C63FF"/>
<path d="M289.444 166.217C290.796 166.217 291.893 165.117 291.893 163.761C291.893 162.405 290.796 161.305 289.444 161.305C288.091 161.305 286.994 162.405 286.994 163.761C286.994 165.117 288.091 166.217 289.444 166.217Z" fill="#6C63FF"/>
<path d="M295.563 166.217C296.916 166.217 298.013 165.117 298.013 163.761C298.013 162.405 296.916 161.305 295.563 161.305C294.211 161.305 293.114 162.405 293.114 163.761C293.114 165.117 294.211 166.217 295.563 166.217Z" fill="#6C63FF"/>
<path d="M146.22 126.543C147.572 126.543 148.669 125.444 148.669 124.087C148.669 122.731 147.572 121.632 146.22 121.632C144.867 121.632 143.77 122.731 143.77 124.087C143.77 125.444 144.867 126.543 146.22 126.543Z" fill="#FFD037"/>
<path d="M102.968 163.765C104.321 163.765 105.418 162.666 105.418 161.31C105.418 159.953 104.321 158.854 102.968 158.854C101.615 158.854 100.518 159.953 100.518 161.31C100.518 162.666 101.615 163.765 102.968 163.765Z" fill="#FC6681"/>
<path d="M318.337 200.6C321.023 202.19 325.213 203.223 330.521 199.807L330.469 207.372C330.847 212.542 337.247 231.459 337.247 231.459L341.759 247.011C344.993 257.998 346.662 269.388 346.719 280.843C346.719 284.639 347.071 288.55 348.158 291.493C350.561 298.003 347.213 306.39 345.76 309.514C343.315 310.342 340.829 311.044 338.312 311.616C338.086 311.668 337.863 311.736 337.646 311.819L337.616 311.776C337.616 311.776 330.843 314.468 327.835 314.098C325.591 313.822 324.186 316.627 325.944 318.69C324.285 319.121 322.583 319.427 321.435 319.285C318.427 318.914 316.919 324.101 322.566 325.583C328.213 327.065 360.209 325.583 360.209 325.583C361.109 325.132 361.834 324.394 362.269 323.484C362.705 322.575 362.827 321.546 362.616 320.56C365.074 320.465 366.608 320.392 366.608 320.392C366.608 320.392 372.255 317.807 366.608 310.755L366.307 310.983L365.1 307.42V302.608C365.1 302.608 372.251 268.143 369.995 264.067C367.739 259.992 366.608 239.24 366.608 239.24L367.373 216.635C369.415 212.413 370.459 205.795 370.988 200.621C371.756 198.153 372.24 195.605 372.432 193.026C372.522 191.811 372.595 190.536 372.642 189.213C372.661 186.312 372.187 183.429 371.241 180.688C373.39 177.586 376.884 172.791 379.768 169.956C384.285 165.51 383.154 160.319 383.154 160.319L381.272 147.717L376.755 126.224C377.322 120.262 376.08 116.828 374.709 114.889C375.036 112.964 375.341 111.038 375.569 109.104C376.57 100.692 376.124 92.1701 374.249 83.9096C373.596 81.0275 372.707 78.0721 370.691 75.8879C368.409 73.415 364.704 71.9071 363.853 68.6674C363.643 67.8618 363.634 67.0045 363.329 66.229C362.504 64.1094 359.891 63.3382 357.605 63.0625C353.53 62.5671 347.638 62.2009 343.723 63.7949C340.99 64.915 337.225 67.9997 335.729 71.3083C334.87 72.8291 334.47 74.4274 334.836 75.9309C334.98 76.4849 335.198 77.0168 335.485 77.512C334.901 79.0967 334.604 80.7729 334.608 82.4621C334.621 85.3656 335.507 88.1978 337.149 90.5899C338.791 92.9819 341.113 94.823 343.813 95.8733C343.904 96.1576 343.985 96.4377 344.054 96.7134C344.225 97.3772 344.349 98.0524 344.424 98.7339C344.351 100.026 344.269 101.358 344.209 102.672C344.166 102.852 344.12 103.031 344.071 103.206C340.834 104.643 337.678 106.256 334.616 108.039C336.877 111.374 334.238 125.457 334.238 125.457C328.591 128.792 322.944 137.318 328.969 146.21C334.995 155.102 331.604 164.735 331.604 164.735L330.663 179.223V179.249L330.473 182.148H330.546L330.473 183.247L330.637 183.277V184.457C327.994 185.431 324.13 187.395 321.827 191.027C320.737 192.814 319.412 194.444 317.886 195.874C317.535 196.178 317.262 196.562 317.09 196.993C316.917 197.424 316.85 197.891 316.895 198.354C316.939 198.816 317.093 199.261 317.344 199.652C317.595 200.043 317.935 200.368 318.337 200.6ZM363.789 162.102C363.562 159.596 364.025 157.075 365.126 154.813C366.011 154.83 366.898 154.84 367.786 154.843C367.876 155.468 367.983 156.062 368.112 156.605C368.877 159.871 365.822 161.435 363.785 162.098L363.789 162.102Z" fill="url(#paint1_linear)"/>
<path d="M364.533 305.731L365.981 310.087L361.253 314.826L345.679 318.458L334.449 317.368L335.175 313.374C335.39 312.515 335.836 311.733 336.465 311.112C337.095 310.491 337.882 310.056 338.742 309.854C343.358 308.769 352.16 306.287 354.008 302.845L364.533 305.731Z" fill="#DB8B8B"/>
<path opacity="0.1" d="M364.533 305.731L365.981 310.087L361.253 314.826L345.679 318.458L334.449 317.368L335.175 313.374C335.39 312.515 335.836 311.733 336.465 311.112C337.095 310.491 337.882 310.056 338.742 309.854C343.358 308.769 352.16 306.287 354.008 302.845L364.533 305.731Z" fill="black"/>
<path d="M338.089 316.26L340.263 313.357L338.089 309.992C338.089 309.992 331.569 312.629 328.673 312.267C325.776 311.905 324.328 317.006 329.76 318.44C335.192 319.875 365.981 318.44 365.981 318.44C365.981 318.44 371.413 315.899 365.981 309.001L361.253 312.633C361.253 312.633 353.285 316.988 349.301 316.265L338.089 316.26Z" fill="#2E3037"/>
<path d="M328.307 322.425L339.537 323.515L355.112 319.884L359.839 315.145L359.457 313.99L358.915 312.37L358.374 310.793L347.87 307.89C347.334 308.768 346.597 309.506 345.722 310.044C342.309 312.383 336.181 314.072 332.584 314.916C332.438 314.952 332.294 314.997 332.154 315.05C331.392 315.306 330.707 315.751 330.162 316.343C329.616 316.935 329.228 317.654 329.034 318.436L328.307 322.425Z" fill="#DB8B8B"/>
<path opacity="0.1" d="M328.307 322.425L339.537 323.515L355.112 319.884L359.839 315.145L359.457 313.99L355.133 317.325C355.133 317.325 347.166 321.68 343.182 320.956H331.93L334.105 318.053L332.154 315.037C331.392 315.293 330.707 315.738 330.162 316.33C329.616 316.922 329.228 317.642 329.034 318.423L328.307 322.425Z" fill="black"/>
<path d="M331.93 321.344L334.105 318.44L331.93 315.076C331.93 315.076 325.411 317.712 322.514 317.35C319.618 316.988 318.169 322.089 323.602 323.524C329.034 324.959 359.822 323.524 359.822 323.524C359.822 323.524 365.255 320.982 359.822 314.085L355.095 317.717C355.095 317.717 347.127 322.072 343.143 321.348L331.93 321.344Z" fill="#2E3037"/>
<path d="M340.986 110.749C340.986 110.749 358.374 112.563 355.838 105.304C355.129 103.245 354.945 101.042 355.301 98.8933C355.752 96.2298 356.803 93.7044 358.374 91.5092L342.073 94.051C343.05 95.6883 343.793 97.4545 344.282 99.2983C346.224 106.997 340.986 110.749 340.986 110.749Z" fill="#DB8B8B"/>
<path d="M370.687 193.534C370.687 193.534 370.326 209.147 366.703 216.773L365.976 238.921C365.976 238.921 367.064 259.255 369.238 263.249C371.413 267.242 364.511 301.01 364.511 301.01V306.821C364.511 306.821 352.907 311.177 349.658 306.093L352.92 262.883L351.472 202.974L370.687 193.534Z" fill="#474463"/>
<path opacity="0.1" d="M370.687 193.534C370.687 193.534 370.326 209.147 366.703 216.773L365.976 238.921C365.976 238.921 367.064 259.255 369.238 263.249C371.413 267.242 364.511 301.01 364.511 301.01V306.821C364.511 306.821 352.907 311.177 349.658 306.093L352.92 262.883L351.472 202.974L370.687 193.534Z" fill="black"/>
<path d="M377.933 143.427L380.107 149.238L381.917 161.585C382.161 163.305 381.993 165.059 381.425 166.701C380.858 168.342 379.908 169.825 378.655 171.024C374.31 175.38 368.512 184.457 368.512 184.457L361.636 163.778C361.636 163.778 368.512 162.688 367.433 157.967C366.355 153.245 366.703 144.499 366.703 144.499L377.933 143.427Z" fill="#FC6681"/>
<path opacity="0.05" d="M377.933 143.427L380.107 149.238L381.917 161.585C382.161 163.305 381.993 165.059 381.425 166.701C380.858 168.342 379.908 169.825 378.655 171.024C374.31 175.38 368.512 184.457 368.512 184.457L361.636 163.778C361.636 163.778 368.512 162.688 367.433 157.967C366.355 153.245 366.703 144.499 366.703 144.499L377.933 143.427Z" fill="black"/>
<path opacity="0.1" d="M345.739 310.048C350.385 317.372 357.618 313.223 358.898 312.396L358.374 310.793L347.87 307.89C347.339 308.767 346.609 309.507 345.739 310.048Z" fill="black"/>
<path d="M331.208 207.695C331.569 212.779 337.728 231.295 337.728 231.295L342.073 246.533C345.186 257.308 346.793 268.463 346.848 279.68C346.848 283.398 347.187 287.232 348.236 290.114C351.132 298.102 345.339 308.997 345.339 308.997C350.41 318.074 359.092 311.901 359.092 311.901V306.093C359.092 306.093 365.968 274.502 364.163 268.332C362.358 262.163 361.627 245.456 361.627 245.456V215.299C367.43 209.504 370.958 201.809 371.568 193.621C371.654 192.432 371.722 191.182 371.77 189.885C372.062 181.7 366.475 172.089 364.292 168.668C363.768 167.841 363.432 167.375 363.432 167.375L331.449 180.093L331.376 180.123V181.364V184.108L331.208 207.695Z" fill="#474463"/>
<path opacity="0.1" d="M342.073 94.0467C343.05 95.684 343.793 97.4502 344.282 99.294C346.053 99.9674 347.94 100.279 349.832 100.209C351.725 100.139 353.584 99.6906 355.301 98.889C355.753 96.227 356.804 93.7031 358.374 91.5092L342.073 94.0467Z" fill="black"/>
<path d="M349.319 99.4878C357.121 99.4878 363.445 93.1478 363.445 85.327C363.445 77.5062 357.121 71.1661 349.319 71.1661C341.517 71.1661 335.192 77.5062 335.192 85.327C335.192 93.1478 341.517 99.4878 349.319 99.4878Z" fill="#DB8B8B"/>
<path opacity="0.1" d="M331.208 184.095L331.363 184.126C346.551 187.258 365.62 171.386 365.62 171.386C365.109 170.523 364.668 169.619 364.3 168.685C363.776 167.858 363.441 167.393 363.441 167.393L331.458 180.11L331.376 181.381L331.208 184.095Z" fill="black"/>
<path d="M335.192 110.383C335.192 110.383 355.477 98.036 361.997 103.12L371.052 114.752C371.052 114.752 376.85 116.565 375.78 128.184L380.107 149.238L367.068 152.508C367.068 152.508 359.461 159.772 365.62 170.301C365.62 170.301 346.422 186.275 331.208 183.01L332.296 165.945C332.296 165.945 335.558 156.506 329.76 147.791C323.963 139.075 329.399 130.726 334.831 127.456C334.831 127.452 337.363 113.653 335.192 110.383Z" fill="#FC6681"/>
<path d="M334.105 184.457C334.105 184.457 326.498 185.909 322.875 191.721C321.83 193.464 320.555 195.058 319.085 196.46C318.754 196.76 318.498 197.134 318.336 197.552C318.174 197.969 318.112 198.418 318.154 198.864C318.195 199.309 318.34 199.739 318.576 200.119C318.812 200.499 319.134 200.818 319.514 201.052C322.39 202.775 327.078 203.848 333 198.971C343.16 190.631 334.105 184.457 334.105 184.457Z" fill="#DB8B8B"/>
<path opacity="0.1" d="M345.335 117.285C345.335 117.285 352.581 116.557 354.39 135.439C356.199 154.322 359.117 158.677 359.117 158.677C359.117 158.677 360.927 168.483 356.582 174.29C352.237 180.097 343.904 192.445 343.904 192.445C343.904 192.445 334.849 194.986 333.039 185.909L344.269 164.851C344.269 164.851 346.078 157.587 341.733 152.504C337.388 147.42 334.105 113.653 345.335 117.285Z" fill="black"/>
<path d="M344.596 116.195C344.596 116.195 351.842 115.467 353.651 134.349C355.46 153.232 358.378 157.587 358.378 157.587C358.378 157.587 360.188 167.393 355.843 173.2C351.498 179.007 343.165 191.355 343.165 191.355C343.165 191.355 334.109 193.896 332.3 184.819L343.53 163.761C343.53 163.761 345.339 156.497 340.994 151.414C336.649 146.33 333.379 112.563 344.596 116.195Z" fill="#FC6681"/>
<path opacity="0.1" d="M338.63 129.809C338.63 129.809 337.908 141.053 341.157 147.239C344.406 153.426 344.419 161.4 341.157 165.764" fill="black"/>
<path opacity="0.1" d="M336.821 116.014C336.821 116.014 339.718 113.11 348.051 112.744C356.384 112.378 360.003 109.84 360.003 109.84" fill="black"/>
<path opacity="0.1" d="M356.969 67.0303C359.169 67.3017 361.696 68.06 362.478 70.1322C362.77 70.8947 362.779 71.7348 362.981 72.5232C363.802 75.694 367.365 77.1717 369.561 79.5972C371.499 81.7512 372.354 84.6334 372.999 87.4552C374.807 95.5471 375.243 103.887 374.288 112.124C373.583 118.155 372.139 124.074 371.735 130.123C371.331 136.172 372.071 142.535 375.367 147.618C376.785 149.803 378.659 151.724 379.665 154.128C377.589 155.817 374.722 156.058 372.045 156.148C368.93 156.255 365.815 156.255 362.697 156.148C361.064 156.092 359.358 155.985 357.948 155.158C356.905 154.488 356.047 153.565 355.456 152.474C353.672 149.458 353.225 145.796 353.307 142.281C353.389 138.765 353.939 135.267 354.003 131.747C354.038 129.83 353.887 127.792 352.787 126.224C351.992 125.091 350.784 124.329 349.753 123.411C345.885 119.964 344.544 114.441 344.415 109.25C344.286 104.059 345.141 98.8588 344.703 93.6848C344.531 91.6599 343.775 89.2258 341.789 88.8338C341.162 88.7089 340.5 88.8338 339.898 88.5925C338.304 87.9765 338.459 85.7233 338.003 84.0733C337.492 82.2208 335.914 80.7905 335.472 78.9035C334.427 74.5092 340.006 69.2662 343.663 67.7368C347.381 66.1773 353.049 66.5478 356.969 67.0303Z" fill="black"/>
<path d="M357.33 66.3066C359.53 66.578 362.057 67.3362 362.839 69.4084C363.131 70.1709 363.14 71.011 363.342 71.7994C364.163 74.9702 367.726 76.4479 369.922 78.8734C371.86 81.0275 372.715 83.9096 373.36 86.7314C375.168 94.8233 375.604 103.163 374.649 111.4C373.944 117.431 372.5 123.351 372.096 129.399C371.692 135.448 372.432 141.811 375.728 146.895C377.146 149.079 379.02 151 380.026 153.404C377.95 155.093 375.083 155.334 372.406 155.425C369.291 155.531 366.176 155.531 363.058 155.425C361.425 155.369 359.719 155.261 358.309 154.434C357.266 153.765 356.408 152.841 355.817 151.75C354.033 148.734 353.586 145.072 353.668 141.557C353.75 138.041 354.3 134.543 354.364 131.023C354.399 129.106 354.248 127.069 353.148 125.5C352.353 124.367 351.145 123.605 350.114 122.687C346.246 119.241 344.905 113.718 344.776 108.526C344.647 103.335 345.502 98.1351 345.064 92.961C344.892 90.9362 344.136 88.5021 342.15 88.11C341.523 87.9851 340.861 88.11 340.259 87.8688C338.665 87.2527 338.82 84.9996 338.364 83.3495C337.853 81.497 336.275 80.0667 335.833 78.1798C334.788 73.7855 340.367 68.5425 344.024 67.0131C347.741 65.4492 353.41 65.8197 357.33 66.3066Z" fill="#472727"/>
</g>
<defs>
<linearGradient id="paint0_linear" x1="205.592" y1="299.726" x2="205.592" y2="14.303" gradientUnits="userSpaceOnUse">
<stop stop-color="#808080" stop-opacity="0.25"/>
<stop offset="0.54" stop-color="#808080" stop-opacity="0.12"/>
<stop offset="1" stop-color="#808080" stop-opacity="0.1"/>
</linearGradient>
<linearGradient id="paint1_linear" x1="-121018" y1="212756" x2="-121018" y2="51459.9" gradientUnits="userSpaceOnUse">
<stop stop-color="#808080" stop-opacity="0.25"/>
<stop offset="0.54" stop-color="#808080" stop-opacity="0.12"/>
<stop offset="1" stop-color="#808080" stop-opacity="0.1"/>
</linearGradient>
<clipPath id="clip0">
<rect width="415" height="345" fill="white"/>
</clipPath>
</defs>
</svg>
